<svg xmlns="http://www.w3.org/2000/svg" viewBox="0 0 2500 2500" version="1.1">
	<path d="M 1254.500 0.677 C 1157.657 2.666, 1057.022 16.735, 965.500 41.079 C 707.393 109.735, 487.895 264.698, 335.290 486 C 215.723 659.392, 141.647 866.554, 118.064 1093.500 C 112.473 1147.302, 110.571 1186.940, 110.577 1249.500 C 110.584 1314.005, 112.444 1351.045, 118.586 1409 C 152.166 1725.837, 287.251 2007.194, 500 2203.415 C 640.856 2333.329, 806.566 2421.577, 994.863 2466.954 C 1081.563 2487.847, 1167.002 2498.267, 1263 2499.656 C 1408.038 2501.755, 1542.874 2482.283, 1669.500 2440.951 C 1742.490 2417.126, 1813.304 2384.946, 1878.418 2346.010 C 2168.843 2172.351, 2349.271 1863.277, 2383.971 1480 C 2389.655 1417.219, 2391.434 1334.629, 2387.999 1293 C 2380.774 1205.442, 2357.206 1143.193, 2314.607 1099.152 C 2276.605 1059.863, 2222.315 1035.957, 2152 1027.547 C 2123.512 1024.140, 2107.650 1024.009, 1723.381 1024.005 C 1307.455 1024, 1333.088 1023.665, 1316.500 1029.324 C 1292.402 1037.545, 1271.912 1055.337, 1260.522 1077.929 C 1257.346 1084.229, 1255.607 1088.789, 1252.677 1098.500 C 1250.576 1105.465, 1250.563 1106.244, 1250.223 1254 C 1249.972 1363.056, 1250.189 1404.492, 1251.040 1410 C 1257.242 1450.168, 1286.785 1481.911, 1327.009 1491.627 C 1334.122 1493.345, 1347.704 1493.451, 1596.394 1493.735 L 1858.287 1494.033 1857.701 1518.767 C 1856.325 1576.737, 1845.598 1632.524, 1825.407 1686.719 C 1803.631 1745.169, 1774.526 1795.326, 1734.143 1844 C 1721.853 1858.814, 1684.814 1895.853, 1670 1908.143 C 1585.992 1977.842, 1489.175 2018.569, 1380.276 2030.020 C 1363.520 2031.782, 1328.744 2032.690, 1309.500 2031.868 C 1299.600 2031.445, 1278.675 2030.643, 1263 2030.086 C 1230.364 2028.926, 1207.005 2027.003, 1182.047 2023.422 C 1031.532 2001.828, 907.315 1931.074, 813.503 1813.500 C 723.861 1701.151, 666.500 1548.234, 648.081 1372.500 C 643.446 1328.283, 642.564 1308.955, 642.534 1251 C 642.506 1196.132, 642.952 1184.452, 646.583 1145 C 660.970 988.659, 709.325 843.902, 784.375 732.500 C 887.491 579.436, 1034.372 490.026, 1213 471.585 C 1266.010 466.113, 1347.984 466.954, 1402 473.524 C 1536.323 489.862, 1665.600 541.723, 1775.500 623.355 C 1798.560 640.484, 1809.366 645.506, 1828.723 648.090 C 1867.575 653.276, 1907.377 632.310, 1924.761 597.500 C 1926.409 594.200, 1956.134 526.658, 1990.817 447.407 C 2029.734 358.481, 2054.747 300.096, 2056.149 294.907 C 2058.053 287.864, 2058.421 283.985, 2058.421 271 C 2058.421 252.397, 2056.567 243.995, 2049.041 228.500 C 2039.557 208.973, 2028.658 197.652, 2007.416 185.262 C 1956.376 155.491, 1895.520 125.328, 1842.025 103.287 C 1692.585 41.716, 1538.935 7.995, 1376 1.012 C 1355.453 0.131, 1289.866 -0.050, 1254.500 0.677" stroke="none" fill="#ffffff" fill-rule="evenodd"></path>
</svg>